<?xml version="1.0" encoding="utf-8"?>
<!-- Generator: Adobe Illustrator 25.0.1, SVG Export Plug-In . SVG Version: 6.00 Build 0)  -->
<svg version="1.1" id="Layer_1" xmlns="http://www.w3.org/2000/svg" xmlns:xlink="http://www.w3.org/1999/xlink" x="0px" y="0px"
	 viewBox="0 0 2000 1128" style="enable-background:new 0 0 2000 1128;" xml:space="preserve">
<style type="text/css">
	.st0{fill-opacity:3.000000e-02;}
	.st1{fill-opacity:2.000000e-02;}
	.st2{opacity:0.17;}
	.st3{fill:#FFFFFF;}
	.st4{opacity:0.14;}
	.st5{opacity:9.000000e-02;}
</style>
<polygon class="st0" points="0,1077.8 392.6,778.4 1505,1127.7 0,1127.7 "/>
<polygon class="st1" points="392.2,778.4 283.3,0 0,0 0,666.5 "/>
<polygon class="st0" points="1000,0 2000,1010 2000,439.9 1749.8,0 "/>
<g class="st2">
	<g id="XMLID_15_">
		<path id="XMLID_16_" d="M247.3,1100.2c-2.1-3.3-2.9-7.1-2.9-11.1c0-1.4,0.7-2.2,1.9-2.2c1.4-0.1,2.1,0.5,2.3,2
			c0.2,1.8,0.2,3.6,0.8,5.4c0.6,1.9,1.4,3.6,2.6,5c2.7,3,6.7,2.8,9.1-0.5c2-2.8,2.9-5.9,3.1-9.3c0.1-1.9,0.1-3.9,0.2-5.8
			c0-0.3-0.2-0.8,0.4-0.9c0.2,0,0-0.2,0-0.4c-0.2-5.5-0.1-11-0.2-16.5c0-8.7,0-17.5,0-26.2c0-0.8-0.1-1.6-0.1-2.4
			c0-0.6-0.3-0.9-0.8-1c-1.6-0.3-3.1-0.9-4.5-1.6c-4.4-2-8.7-1.5-12.8,0.8c-1.2,0.7-2.3,1.4-3.4,2.1c-1.5,1-2.9,0.9-4.4-0.1
			c-1.9-1.5-4-2.7-6.4-3.3c-3.8-1-7.4-0.4-10.9,1.1c-1.3,0.6-2.5,1.2-3.6,2.1c-1.3,1.1-2.1,1.1-3.4,0.1c-2.1-1.6-4.4-2.8-7-3.5
			c-1.9-0.5-3.8-0.6-5.7-0.4c-0.4,0-0.9,0-1.2-0.3c0-0.2,0-0.5,0-0.7c0.3-0.6,0.8-0.8,1.3-1.1c8.4-5.4,16.9-10.9,25.3-16.3
			c7.4-4.8,14.9-9.5,22.4-14.3c3.9-2.4,7.7-4.9,11.5-7.3c0.9-0.6,1.9-1,2.9-1.2c0.4,0,0.8,0,1.1,0c2,0.7,3.8,1.9,5.6,3
			c9.9,6.4,20,12.4,29.9,18.6c3.4,2.1,6.8,4.2,10.2,6.4c-7.3-28.4-32-49.3-61.4-49.3c-35.1,0-63.6,29.9-63.6,66.8
			s28.5,66.8,63.6,66.8c0.6,0,1.2,0,1.8,0C249.6,1103.3,248.4,1101.9,247.3,1100.2z"/>
	</g>
	<g id="XMLID_8_">
		<rect id="XMLID_14_" x="239.5" y="1045.1" class="st3" width="8.7" height="9.1"/>
		<rect id="XMLID_13_" x="229.3" y="1045.1" class="st3" width="8.7" height="9.1"/>
		<rect id="XMLID_12_" x="239.5" y="1055.7" class="st3" width="8.7" height="9.1"/>
		<rect id="XMLID_11_" x="229.3" y="1055.7" class="st3" width="8.7" height="9.1"/>
	</g>
	<g>
		<path d="M273.5,1053.4c0,0.4,0.1,0.8,0.3,1.2s0.5,0.8,0.9,1.1c0.4,0.3,0.8,0.6,1.2,0.7c0.4,0.2,0.9,0.2,1.4,0.2
			c0.5,0,1-0.1,1.4-0.2s0.8-0.4,1.2-0.7l0,0c0.4-0.3,0.7-0.7,0.9-1.1c0.2-0.4,0.3-0.8,0.3-1.2v-7.4c0-0.7,0.3-1.3,0.9-1.8h0
			c0.2-0.2,0.5-0.3,0.8-0.5c0.3-0.2,0.8-0.2,1.5-0.3v9.7l-0.3,1.7c-0.2,0.6-0.4,1.1-0.7,1.5s-0.6,0.8-1,1.1c-1.4,1.2-3,1.8-5,1.8
			c-1,0-1.9-0.2-2.8-0.4c-0.9-0.3-1.6-0.7-2.3-1.3c-1.3-1.1-1.9-2.5-1.9-4.1v-6c0.5,0,1,0.1,1.4,0.2c0.4,0.1,0.6,0.3,0.9,0.5v0
			c0.6,0.5,0.9,1.1,0.9,1.9L273.5,1053.4L273.5,1053.4z M275.5,1041c0-0.5,0.2-0.9,0.5-1.2s0.9-0.5,1.5-0.5c0.6,0,1.1,0.2,1.4,0.5
			c0.4,0.3,0.5,0.7,0.5,1.2c0,0.5-0.2,0.9-0.5,1.2c-0.4,0.3-0.8,0.5-1.4,0.5c-0.6,0-1.1-0.2-1.5-0.5
			C275.7,1041.9,275.5,1041.5,275.5,1041z"/>
		<path d="M297.9,1055.2H294c-0.9,0-1.8-0.1-2.7-0.4c-0.8-0.3-1.6-0.7-2.4-1.2c-0.6-0.5-1.1-1.2-1.4-1.9s-0.5-1.5-0.5-2.4
			s0.2-1.6,0.5-2.3c0.4-0.7,0.8-1.3,1.5-1.9c0.8-0.5,1.5-0.9,2.4-1.2c0.8-0.3,1.7-0.4,2.6-0.4c0.9,0,1.8,0.2,2.6,0.4
			c0.8,0.3,1.6,0.7,2.4,1.2c0.6,0.6,1.1,1.2,1.5,1.9c0.4,0.7,0.5,1.5,0.5,2.3v10.1c-0.5,0-1-0.1-1.4-0.3s-0.7-0.4-1-0.6
			c-0.2-0.2-0.4-0.5-0.6-0.8c-0.1-0.3-0.2-0.6-0.2-1L297.9,1055.2L297.9,1055.2z M297.9,1052.7v-3.4c0-0.4-0.1-0.9-0.4-1.2
			c-0.2-0.4-0.5-0.8-0.9-1.1c-0.8-0.7-1.6-1-2.6-1c-1,0-1.8,0.3-2.6,1c-0.4,0.3-0.7,0.7-0.9,1.1c-0.2,0.4-0.3,0.8-0.3,1.2
			c0,0.5,0.1,0.9,0.3,1.2s0.5,0.7,0.9,1.1v0c0.4,0.3,0.8,0.6,1.2,0.8c0.4,0.2,0.9,0.3,1.3,0.3H297.9z"/>
		<path d="M304.5,1046c0-0.8,0.2-1.3,0.5-1.6c0.3-0.3,0.7-0.5,1.1-0.7c0.4-0.2,0.9-0.3,1.5-0.4v9.3h1.9v2.6h-1.9v1.4
			c0,0.4-0.1,0.7-0.2,1c-0.1,0.3-0.4,0.6-0.6,0.8c-0.3,0.2-0.6,0.4-1,0.6c-0.4,0.2-0.8,0.2-1.3,0.3L304.5,1046L304.5,1046z"/>
		<path d="M316.9,1052.7v2.6h-8.4v-2.6H316.9z"/>
		<path d="M324.2,1052.7v2.6h-8.4v-2.6H324.2z"/>
		<path d="M331.5,1052.7v2.6h-8.4v-2.6H331.5z"/>
		<path d="M336.3,1052.7c-0.4-0.5-0.7-1.1-0.9-1.7c-0.2-0.6-0.3-1.2-0.3-1.7c0-0.6,0.1-1.1,0.2-1.6c0.1-0.5,0.5-1,0.9-1.6
			c-0.4,0-0.8-0.1-1.1-0.2s-0.6-0.3-0.9-0.5c-0.2-0.2-0.4-0.4-0.5-0.8c-0.1-0.3-0.2-0.8-0.3-1.3h14.5c1,0,1.9,0.2,2.7,0.5
			c0.8,0.3,1.5,0.7,2.2,1.2c0.7,0.6,1.2,1.2,1.5,1.9c0.3,0.7,0.5,1.5,0.5,2.3c0,0.8-0.1,1.6-0.5,2.3c-0.3,0.7-0.8,1.4-1.5,2
			c-0.7,0.6-1.4,0.9-2.2,1.2c-0.8,0.2-1.7,0.3-2.7,0.3h-18.1v-2.6L336.3,1052.7L336.3,1052.7z M344,1052.7v-3.4
			c0-0.4-0.1-0.8-0.3-1.2c-0.2-0.4-0.5-0.7-0.8-1.1c-0.2-0.2-0.5-0.3-0.8-0.5c-0.3-0.2-0.6-0.3-0.8-0.4H341
			c-0.2,0.1-0.5,0.2-0.8,0.4c-0.3,0.2-0.5,0.3-0.8,0.5c-0.4,0.4-0.7,0.7-0.9,1.1s-0.3,0.8-0.3,1.2c0,0.4,0.1,0.8,0.4,1.2
			c0.3,0.4,0.6,0.8,0.9,1.2c0.4,0.3,0.8,0.5,1.2,0.7c0.4,0.2,0.9,0.3,1.4,0.3L344,1052.7L344,1052.7z M347.2,1052.7h0.7
			c0.5,0,1-0.1,1.5-0.3s0.9-0.4,1.3-0.7c0.3-0.3,0.6-0.7,0.8-1.1c0.2-0.4,0.4-0.8,0.4-1.2c0-0.4-0.1-0.8-0.3-1.2
			c-0.2-0.4-0.5-0.7-0.8-1c-0.4-0.3-0.9-0.6-1.3-0.7c-0.5-0.2-1-0.3-1.5-0.3H346c0.4,0.5,0.7,1.1,0.9,1.6c0.2,0.5,0.3,1.1,0.3,1.6
			L347.2,1052.7L347.2,1052.7z"/>
		<path d="M365.7,1055.2h-6.6v-16.1c0.5,0,1,0.1,1.3,0.3s0.6,0.3,0.9,0.5c0.3,0.2,0.5,0.5,0.7,0.8s0.2,0.7,0.2,1v10.9h3.5
			L365.7,1055.2L365.7,1055.2z"/>
		<path d="M364.1,1055.2v-2.6h3.7v-3.3c0-0.9,0.2-1.6,0.5-2.3c0.4-0.7,0.9-1.3,1.6-1.9c0.6-0.5,1.4-0.9,2.2-1.2
			c0.8-0.3,1.7-0.4,2.8-0.4s1.9,0.2,2.7,0.5c0.8,0.3,1.6,0.7,2.2,1.2c1.3,1.2,2,2.6,2,4.2c0,0.8-0.2,1.6-0.5,2.3s-0.8,1.4-1.5,1.9
			c-0.7,0.5-1.4,0.9-2.2,1.2c-0.8,0.3-1.7,0.4-2.8,0.4L364.1,1055.2L364.1,1055.2z M371.1,1052.7h3.7c0.5,0,1-0.1,1.5-0.3
			s0.9-0.4,1.3-0.7c0.3-0.4,0.6-0.8,0.8-1.2s0.3-0.8,0.3-1.2c0-0.4-0.1-0.9-0.3-1.2c-0.2-0.4-0.5-0.7-0.8-1.1v0
			c-0.4-0.3-0.8-0.6-1.3-0.8c-0.5-0.2-1-0.3-1.5-0.3c-0.5,0-0.9,0.1-1.4,0.3c-0.5,0.2-0.9,0.4-1.2,0.7c-0.3,0.3-0.6,0.7-0.8,1.1
			s-0.3,0.8-0.3,1.2L371.1,1052.7L371.1,1052.7z"/>
	</g>
	<g>
		<path d="M274.7,1077.9h-1.9V1066h3l3.4,7.5l3.4-7.5h3v11.9h-1.9v-9.3l-3.9,8.3h-1.1l-3.9-8.3L274.7,1077.9L274.7,1077.9z"/>
		<path d="M291.5,1075.2l-1.1,2.7h-2l5-11.9h2l5,11.9h-2l-1.1-2.7H291.5z M296.4,1073.3l-2-4.9l-2,4.9H296.4z"/>
		<path d="M303.2,1077.9V1066h1.9v5.2h5.6v-5.2h1.9v11.9h-1.9v-4.9h-5.6v4.9H303.2z"/>
		<path d="M324.9,1066v1.9h-6v3.2h5.4v1.8h-5.4v3.2h6.2v1.9H317V1066L324.9,1066L324.9,1066z"/>
		<path d="M337.8,1069.8c0,2-0.8,3.2-2.4,3.7l3,4.3h-2.4l-2.7-4h-2.5v4h-1.9V1066h4.2c1.7,0,3,0.3,3.7,0.9
			C337.5,1067.5,337.8,1068.5,337.8,1069.8z M335.3,1071.5c0.4-0.3,0.6-0.9,0.6-1.7c0-0.8-0.2-1.3-0.6-1.6s-1.1-0.4-2.1-0.4h-2.4
			v4.3h2.4C334.2,1072.1,334.9,1071.9,335.3,1071.5z"/>
		<path d="M351.3,1076.2c-1.1,1.2-2.5,1.8-4.2,1.8c-1.7,0-3.1-0.6-4.2-1.8s-1.7-2.6-1.7-4.4s0.6-3.2,1.7-4.4
			c1.1-1.2,2.5-1.8,4.2-1.8c1.7,0,3.1,0.6,4.2,1.8c1.1,1.2,1.7,2.6,1.7,4.4S352.4,1075.1,351.3,1076.2z M349.9,1068.8
			c-0.8-0.8-1.7-1.3-2.8-1.3s-2.1,0.4-2.8,1.3s-1.1,1.9-1.1,3.1c0,1.2,0.4,2.2,1.1,3.1c0.8,0.8,1.7,1.3,2.8,1.3s2.1-0.4,2.8-1.3
			s1.1-1.9,1.1-3.1S350.7,1069.6,349.9,1068.8z"/>
		<path d="M366.1,1076.2c-1.1,1.2-2.5,1.8-4.2,1.8c-1.7,0-3.1-0.6-4.2-1.8s-1.7-2.6-1.7-4.4s0.6-3.2,1.7-4.4
			c1.1-1.2,2.5-1.8,4.2-1.8c1.7,0,3.1,0.6,4.2,1.8c1.1,1.2,1.7,2.6,1.7,4.4C367.8,1073.6,367.3,1075.1,366.1,1076.2z M364.7,1068.8
			c-0.8-0.8-1.7-1.3-2.8-1.3s-2.1,0.4-2.8,1.3s-1.1,1.9-1.1,3.1c0,1.2,0.4,2.2,1.1,3.1c0.8,0.8,1.7,1.3,2.8,1.3s2.1-0.4,2.8-1.3
			s1.1-1.9,1.1-3.1S365.5,1069.6,364.7,1068.8z"/>
		<path d="M380,1066h1.9v11.9h-2.1l-6.4-8.7v8.7h-1.9V1066h1.9l6.5,8.9L380,1066L380,1066z"/>
	</g>
</g>
<g class="st4">
	<g id="XMLID_6_">
		<path id="XMLID_7_" d="M360,608.5c-8.8,5.6-18.7,7.5-29,7.7c-3.7,0-5.6-1.8-5.8-5.1c-0.2-3.7,1.4-5.6,5.3-6
			c4.7-0.5,9.5-0.6,14.1-2c4.9-1.5,9.4-3.6,13.2-7c7.9-7,7.3-17.5-1.2-23.8c-7.2-5.4-15.5-7.6-24.5-8c-5-0.2-10.1-0.3-15.2-0.5
			c-0.9,0-2.2,0.5-2.5-1.1c-0.1-0.5-0.6-0.1-0.9-0.1c-14.4,0.5-28.9,0.4-43.3,0.4c-22.9,0-45.7,0-68.6,0c-2.1,0-4.2,0.2-6.2,0.3
			c-1.4,0.1-2.3,0.8-2.6,2.2c-0.8,4.2-2.5,8-4.2,11.8c-5.4,11.6-3.8,22.7,2.2,33.5c1.7,3.1,3.6,6.1,5.6,9c2.7,4,2.5,7.6-0.4,11.4
			c-3.8,5.1-7,10.5-8.7,16.7c-2.7,9.8-1.2,19.2,2.9,28.5c1.5,3.3,3.1,6.6,5.4,9.5c2.8,3.5,2.9,5.4,0.1,9c-4.2,5.6-7.4,11.6-9.1,18.3
			c-1.2,5-1.5,10-1.1,15c0.1,1.2,0,2.2-0.9,3.2c-0.6,0-1.2,0-1.8,0c-1.5-0.7-2.2-2.1-3-3.4c-14.3-22.1-28.6-44.2-42.8-66.4
			c-12.5-19.5-25-39-37.4-58.5c-6.4-10.1-12.8-20.1-19.2-30.2c-1.5-2.4-2.7-4.8-3.1-7.6c0-1,0-2,0-3c1.9-5.2,4.9-10,7.9-14.7
			c16.6-25.9,32.4-52.3,48.7-78.3c5.6-8.9,11.1-17.8,16.6-26.7C75.9,461.5,21.2,526.2,21.2,603.2c0,92,78.3,166.6,174.9,166.6
			S371,695.2,371,603.2c0-1.6,0-3.2-0.1-4.7C368.2,602.4,364.5,605.7,360,608.5z"/>
	</g>
	<g id="XMLID_1_">
		<rect id="XMLID_5_" x="215.7" y="606.3" class="st3" width="23.8" height="22.7"/>
		<rect id="XMLID_4_" x="215.7" y="632.8" class="st3" width="23.8" height="22.7"/>
		<rect id="XMLID_3_" x="243.5" y="606.3" class="st3" width="23.8" height="22.7"/>
		<rect id="XMLID_2_" x="243.5" y="632.8" class="st3" width="23.8" height="22.7"/>
	</g>
	<g>
		<path d="M237.5,539.8c1,0,2-0.3,3.1-0.9c1-0.6,2-1.4,2.9-2.4c0.8-1,1.5-2,1.9-3.2c0.4-1.1,0.6-2.4,0.6-3.7c0-1.3-0.2-2.5-0.6-3.6
			s-1.1-2.2-1.8-3.2l0.1,0.1c-0.9-1-1.9-1.7-2.9-2.3s-2.1-0.8-3.2-0.8h-19.3c-1.9,0-3.5-0.8-4.8-2.4v0.1c-0.5-0.5-0.9-1.3-1.3-2.1
			c-0.4-0.9-0.6-2.2-0.7-3.9h25.5l4.5,0.8c1.5,0.5,2.8,1.1,4,1.9c1.1,0.8,2.1,1.7,3,2.7c3.1,3.6,4.6,8,4.6,13c0,2.5-0.4,5-1.2,7.2
			s-1.9,4.3-3.4,6.1c-2.9,3.4-6.5,5-10.9,5h-15.6c0.1-1.5,0.3-2.6,0.6-3.5c0.3-0.9,0.8-1.7,1.3-2.3h-0.1c1.3-1.5,3-2.3,5-2.3
			L237.5,539.8L237.5,539.8z M205,534.5c-1.3,0-2.4-0.5-3.2-1.4c-0.9-1-1.3-2.2-1.3-3.8c0-1.5,0.4-2.8,1.3-3.7
			c0.9-0.9,1.9-1.4,3.2-1.4c1.3,0,2.3,0.5,3.1,1.4c0.8,0.9,1.2,2.2,1.2,3.7c0,1.6-0.4,2.8-1.2,3.8C207.3,534,206.2,534.5,205,534.5z
			"/>
		<path d="M242.3,476v10.1c0,2.4-0.4,4.7-1.1,7c-0.7,2.2-1.8,4.3-3.2,6.3c-1.4,1.6-3,2.9-5,3.8c-1.9,0.9-4,1.3-6.2,1.3
			s-4.2-0.5-6-1.4s-3.5-2.2-5.1-3.8c-1.4-2-2.4-4-3.2-6.2s-1.1-4.5-1.1-6.9s0.4-4.7,1.1-6.9s1.8-4.2,3.2-6.2
			c1.6-1.6,3.3-2.9,5.1-3.9c1.9-1,3.8-1.4,6-1.4h26.3c-0.1,1.3-0.3,2.5-0.8,3.5c-0.4,1-1,1.9-1.6,2.5c-0.6,0.6-1.3,1.2-2.1,1.6
			c-0.8,0.4-1.6,0.6-2.6,0.6L242.3,476L242.3,476z M235.6,476h-8.8c-1.2,0-2.2,0.3-3.3,0.9c-1,0.6-1.9,1.4-2.8,2.4
			c-1.7,2-2.6,4.3-2.6,6.8c0,2.5,0.9,4.8,2.6,6.8c0.9,1,1.8,1.8,2.8,2.4c1,0.6,2.1,0.9,3.3,0.9c1.2,0,2.3-0.3,3.3-0.9
			c1-0.6,1.9-1.4,2.8-2.4h-0.1c0.9-1.1,1.6-2.1,2.1-3.2c0.5-1.1,0.7-2.3,0.7-3.5V476z"/>
		<path d="M218.2,458.8c-2.1,0-3.4-0.4-4.2-1.3c-0.7-0.9-1.3-1.9-1.8-2.9c-0.5-1.1-0.8-2.4-1-4h24.4v-4.9h6.7v4.9h3.8
			c0.9,0,1.8,0.2,2.7,0.6s1.5,0.9,2.1,1.6c0.6,0.7,1.1,1.6,1.5,2.5s0.6,2.1,0.7,3.5L218.2,458.8L218.2,458.8z"/>
		<path d="M235.6,426.4h6.7v21.9h-6.7V426.4z"/>
		<path d="M235.6,407.1h6.7V429h-6.7V407.1z"/>
		<path d="M235.6,387.9h6.7v21.9h-6.7V387.9z"/>
		<path d="M235.6,375.4c-1.4,1-2.8,1.8-4.3,2.4c-1.5,0.5-3,0.8-4.4,0.8c-1.5,0-2.8-0.2-4.1-0.6c-1.2-0.4-2.6-1.2-4.2-2.4
			c0,1.1-0.2,2.1-0.5,2.9c-0.3,0.8-0.7,1.6-1.3,2.3c-0.5,0.5-1.1,1-2,1.3c-0.9,0.3-2,0.5-3.3,0.7v-37.8c0-2.6,0.4-5,1.2-7.1
			s1.9-4,3.3-5.8c1.5-1.8,3.2-3.1,5.1-3.9c1.9-0.8,3.9-1.2,6.1-1.2c2.2,0,4.2,0.4,6.1,1.2c1.9,0.8,3.6,2.1,5.1,3.9
			c1.4,1.8,2.5,3.7,3.1,5.8s0.9,4.5,0.9,7.1v47.5h-6.7L235.6,375.4L235.6,375.4z M235.6,355.3h-8.8c-1.1,0-2.2,0.2-3.1,0.7
			c-1,0.5-1.9,1.2-2.8,2.1c-0.4,0.6-0.8,1.3-1.3,2c-0.5,0.7-0.8,1.5-1,2.1v0.8c0.2,0.6,0.6,1.3,1,2c0.4,0.8,0.9,1.4,1.2,2
			c0.9,1,1.9,1.8,2.9,2.4c1,0.6,2,0.9,3.1,0.9c1,0,2.1-0.4,3.2-1c1.1-0.7,2.2-1.5,3.1-2.3c0.8-1,1.4-2,1.8-3.1
			c0.4-1.1,0.7-2.3,0.7-3.7L235.6,355.3L235.6,355.3z M235.6,346.7v-1.8c0-1.3-0.2-2.6-0.7-3.8c-0.4-1.2-1-2.3-1.8-3.3
			c-0.9-0.8-1.9-1.5-3-2.1c-1.1-0.6-2.1-0.9-3.2-0.9c-1.1,0-2.2,0.3-3.1,0.8s-1.9,1.2-2.7,2.1c-0.8,1.1-1.5,2.3-1.9,3.5
			c-0.4,1.2-0.7,2.5-0.7,3.9v5c1.4-1,2.8-1.8,4.1-2.3c1.4-0.6,2.8-0.9,4.1-0.9H235.6z"/>
		<path d="M242.3,298.3v17.3h-42.1c0.1-1.4,0.3-2.6,0.7-3.5c0.3-0.9,0.8-1.7,1.3-2.2c0.6-0.8,1.4-1.4,2.2-1.8
			c0.9-0.4,1.8-0.6,2.7-0.6h28.5v-9.1L242.3,298.3L242.3,298.3z"/>
		<path d="M242.3,302.5h-6.7v-9.8h-8.7c-2.2,0-4.3-0.5-6.1-1.4s-3.5-2.3-5-4.1c-1.4-1.7-2.4-3.5-3.2-5.7s-1.1-4.5-1.1-7.2
			s0.4-5.1,1.2-7.2c0.8-2.1,1.9-4.1,3.3-5.9c3.1-3.5,6.7-5.2,10.9-5.2c2.1,0,4.2,0.4,6.1,1.3c1.9,0.9,3.6,2.2,5.1,4
			c1.4,1.8,2.4,3.7,3.1,5.9c0.7,2.1,1.1,4.5,1.1,7.3L242.3,302.5L242.3,302.5z M235.6,284.2v-9.8c0-1.4-0.2-2.6-0.7-3.9
			s-1.1-2.3-1.8-3.4c-1-0.8-2-1.5-3-2c-1.1-0.5-2.1-0.8-3.2-0.8c-1.2,0-2.2,0.3-3.3,0.8c-1,0.5-1.9,1.2-2.8,2.1h0.1
			c-0.8,1-1.5,2.1-1.9,3.4c-0.5,1.3-0.7,2.6-0.7,3.8c0,1.2,0.2,2.4,0.7,3.6c0.5,1.2,1.1,2.3,1.8,3.2c0.9,0.8,1.8,1.5,2.9,2.1
			s2.1,0.9,3.2,0.9L235.6,284.2L235.6,284.2z"/>
	</g>
	<g>
		<path d="M301.6,536.7v5h-31.2v-7.8L290,525l-19.6-8.9v-7.7h31.2v5h-24.4l21.6,10.3v2.8l-21.6,10.3L301.6,536.7L301.6,536.7z"/>
		<path d="M294.5,492.7l7.1,3v5.3l-31.2-13v-5.3l31.2-13v5.3l-7.1,3V492.7z M289.6,479.9l-12.8,5.4l12.8,5.4V479.9z"/>
		<path d="M301.6,462.1h-31.2v-5h13.5v-14.6h-13.5v-5h31.2v5h-12.8v14.6h12.8V462.1z"/>
		<path d="M270.4,405.2h5V421h8.2v-14.1h4.7V421h8.3v-16.3h5v21.2h-31.2V405.2z"/>
		<path d="M280.5,371.4c5.1,0,8.4,2.1,9.7,6.4l11.3-7.7v6.3l-10.5,7v6.5h10.5v5h-31.2v-11c0-4.5,0.8-7.7,2.4-9.7
			C274.4,372.4,277,371.4,280.5,371.4z M284.9,378c-0.9-1-2.4-1.5-4.4-1.5s-3.4,0.5-4.2,1.6s-1.1,2.9-1.1,5.6v6.3h11.1v-6.2
			C286.3,381,285.9,379,284.9,378z"/>
		<path d="M297.3,336.1c3.1,3,4.6,6.7,4.6,11.1c0,4.4-1.5,8.1-4.6,11.1s-6.9,4.5-11.5,4.5s-8.4-1.5-11.5-4.5
			c-3.1-3-4.6-6.7-4.6-11.1c0-4.4,1.5-8.1,4.6-11.1c3.1-3,6.9-4.5,11.5-4.5S294.2,333.1,297.3,336.1z M277.8,339.8
			c-2.2,2-3.3,4.5-3.3,7.4s1.1,5.4,3.3,7.4c2.2,2,4.9,3,8,3s5.8-1,8-3c2.2-2,3.3-4.5,3.3-7.4s-1.1-5.4-3.3-7.4c-2.2-2-4.9-3-8-3
			S280,337.8,277.8,339.8z"/>
		<path d="M297.3,297.3c3.1,3,4.6,6.7,4.6,11.1c0,4.4-1.5,8.1-4.6,11.1s-6.9,4.5-11.5,4.5s-8.4-1.5-11.5-4.5
			c-3.1-3-4.6-6.7-4.6-11.1c0-4.4,1.5-8.1,4.6-11.1c3.1-3,6.9-4.5,11.5-4.5S294.2,294.3,297.3,297.3z M277.8,300.9
			c-2.2,2-3.3,4.5-3.3,7.4s1.1,5.4,3.3,7.4c2.2,2,4.9,3,8,3s5.8-1,8-3c2.2-2,3.3-4.5,3.3-7.4s-1.1-5.4-3.3-7.4c-2.2-2-4.9-3-8-3
			S280,298.9,277.8,300.9z"/>
		<path d="M270.4,261v-5h31.2v5.4l-22.7,16.7h22.7v5h-31.2v-5l23.3-17.1H270.4z"/>
	</g>
</g>
<g class="st5">
	<g id="XMLID_20_">
		<path id="XMLID_21_" d="M857.8,1005.7c-4.3-6.7-5.8-14.3-5.9-22.2c0-2.8,1.4-4.3,3.9-4.4c2.8-0.1,4.3,1.1,4.6,4
			c0.4,3.6,0.5,7.2,1.6,10.7c1.2,3.7,2.7,7.2,5.3,10.1c5.4,6,13.3,5.6,18.2-0.9c4.1-5.5,5.8-11.9,6.1-18.7c0.2-3.9,0.2-7.7,0.4-11.6
			c0-0.7-0.4-1.7,0.8-1.9c0.3-0.1,0.1-0.5,0.1-0.7c-0.4-11-0.3-22.1-0.3-33.1c0-17.5,0-34.9,0-52.4c0-1.6-0.1-3.2-0.2-4.8
			c-0.1-1.1-0.6-1.8-1.7-2c-3.2-0.6-6.1-1.9-9-3.2c-8.8-4.1-17.3-2.9-25.6,1.7c-2.3,1.3-4.6,2.7-6.9,4.2c-3,2.1-5.8,1.9-8.7-0.3
			c-3.9-2.9-8-5.4-12.7-6.7c-7.5-2.1-14.7-0.9-21.7,2.2c-2.6,1.1-5,2.4-7.2,4.2c-2.7,2.1-4.1,2.2-6.9,0.1c-4.3-3.2-8.8-5.7-14-7
			c-3.8-0.9-7.6-1.2-11.5-0.9c-0.9,0.1-1.7,0-2.4-0.7c0-0.5,0-0.9,0-1.4c0.5-1.1,1.6-1.7,2.6-2.3c16.9-10.9,33.7-21.9,50.7-32.7
			c14.9-9.5,29.8-19.1,44.7-28.5c7.7-4.9,15.4-9.8,23.1-14.7c1.8-1.2,3.7-2.1,5.8-2.4c0.8,0,1.5,0,2.3,0c4,1.5,7.7,3.7,11.2,6
			c19.8,12.7,39.9,24.8,59.8,37.2c6.8,4.2,13.6,8.5,20.4,12.7C970,788.8,920.6,747,861.9,747c-70.3,0-127.2,59.8-127.2,133.5
			s57,133.5,127.2,133.5c1.2,0,2.4,0,3.6-0.1C862.5,1012,859.9,1009.1,857.8,1005.7z"/>
	</g>
	<g id="XMLID_9_">
		<rect id="XMLID_19_" x="842.1" y="895.5" class="st3" width="17.3" height="18.2"/>
		<rect id="XMLID_18_" x="821.9" y="895.5" class="st3" width="17.3" height="18.2"/>
		<rect id="XMLID_17_" x="842.1" y="916.7" class="st3" width="17.3" height="18.2"/>
		<rect id="XMLID_10_" x="821.9" y="916.7" class="st3" width="17.3" height="18.2"/>
	</g>
	<g>
		<path d="M910.3,912.2c0,0.8,0.2,1.6,0.7,2.3s1,1.5,1.8,2.2c0.7,0.6,1.6,1.1,2.4,1.5c0.9,0.3,1.8,0.5,2.9,0.5c1,0,1.9-0.2,2.8-0.5
			c0.8-0.3,1.7-0.8,2.4-1.4l0,0c0.7-0.7,1.3-1.4,1.8-2.2c0.4-0.8,0.6-1.6,0.6-2.4v-14.8c0-1.4,0.6-2.7,1.9-3.6h0
			c0.4-0.4,1-0.7,1.6-1c0.7-0.3,1.7-0.5,3-0.5v19.5l-0.6,3.4c-0.4,1.2-0.8,2.2-1.4,3c-0.6,0.9-1.3,1.6-2,2.3
			c-2.8,2.4-6.1,3.5-9.9,3.5c-2,0-3.8-0.3-5.5-0.9c-1.7-0.6-3.3-1.5-4.6-2.6c-2.6-2.2-3.9-4.9-3.9-8.3v-11.9c1.1,0.1,2,0.2,2.7,0.5
			c0.7,0.2,1.3,0.6,1.8,1v0c1.2,1,1.8,2.3,1.8,3.8L910.3,912.2L910.3,912.2z M914.3,887.3c0-1,0.4-1.8,1.1-2.5c0.7-0.6,1.7-1,2.9-1
			c1.2,0,2.1,0.3,2.8,1c0.7,0.7,1.1,1.5,1.1,2.5c0,1-0.4,1.8-1.1,2.4c-0.7,0.6-1.7,1-2.8,1c-1.2,0-2.2-0.3-2.9-1
			C914.7,889.1,914.3,888.3,914.3,887.3z"/>
		<path d="M958.9,915.8h-7.7c-1.9,0-3.6-0.3-5.3-0.8c-1.7-0.5-3.3-1.4-4.8-2.5c-1.2-1.1-2.2-2.3-2.9-3.8c-0.7-1.5-1-3.1-1-4.7
			c0-1.7,0.4-3.2,1.1-4.6c0.7-1.4,1.7-2.7,2.9-3.9c1.5-1.1,3.1-1.9,4.7-2.4c1.7-0.6,3.4-0.9,5.3-0.9c1.9,0,3.6,0.3,5.3,0.9
			c1.7,0.6,3.2,1.4,4.7,2.4c1.2,1.2,2.2,2.5,3,3.9c0.7,1.4,1.1,2.9,1.1,4.6v20.1c-1-0.1-1.9-0.2-2.7-0.6c-0.8-0.3-1.4-0.7-1.9-1.2
			c-0.5-0.5-0.9-1-1.2-1.6c-0.3-0.6-0.5-1.2-0.5-2L958.9,915.8L958.9,915.8z M958.9,910.7V904c0-0.9-0.2-1.7-0.7-2.5
			c-0.5-0.8-1.1-1.5-1.8-2.2c-1.5-1.3-3.3-1.9-5.2-1.9c-1.9,0-3.6,0.6-5.2,1.9c-0.7,0.7-1.3,1.4-1.8,2.2c-0.5,0.8-0.7,1.6-0.7,2.5
			c0,0.9,0.2,1.7,0.7,2.5c0.5,0.7,1.1,1.5,1.8,2.2v0c0.8,0.7,1.6,1.2,2.5,1.6c0.8,0.4,1.7,0.5,2.7,0.5L958.9,910.7L958.9,910.7z"/>
		<path d="M972.1,897.4c0-1.6,0.3-2.6,1-3.2c0.7-0.5,1.4-1,2.2-1.3c0.8-0.4,1.8-0.6,3-0.8v18.7h3.8v5.1h-3.8v2.9
			c0,0.7-0.1,1.4-0.4,2c-0.3,0.6-0.7,1.2-1.2,1.6c-0.6,0.5-1.2,0.9-1.9,1.1c-0.7,0.3-1.6,0.5-2.7,0.5L972.1,897.4L972.1,897.4z"/>
		<path d="M996.9,910.7v5.1h-16.7v-5.1H996.9z"/>
		<path d="M1011.5,910.7v5.1h-16.7v-5.1H1011.5z"/>
		<path d="M1026.2,910.7v5.1h-16.7v-5.1H1026.2z"/>
		<path d="M1035.8,910.7c-0.8-1-1.4-2.2-1.8-3.3s-0.6-2.3-0.6-3.4c0-1.1,0.2-2.2,0.5-3.1c0.3-0.9,0.9-2,1.8-3.2
			c-0.8,0-1.6-0.2-2.2-0.4c-0.6-0.2-1.2-0.6-1.8-1c-0.4-0.4-0.8-0.9-1-1.5c-0.2-0.6-0.4-1.5-0.5-2.6h28.9c2,0,3.8,0.3,5.4,0.9
			c1.6,0.6,3.1,1.4,4.4,2.5c1.4,1.2,2.4,2.4,3,3.9c0.6,1.4,0.9,3,0.9,4.6c0,1.7-0.3,3.2-0.9,4.7c-0.6,1.5-1.6,2.8-3,3.9
			c-1.4,1.1-2.8,1.9-4.4,2.4c-1.6,0.5-3.4,0.7-5.5,0.7h-36.2v-5.1L1035.8,910.7z M1051.1,910.7V904c0-0.9-0.2-1.7-0.6-2.4
			c-0.4-0.7-0.9-1.4-1.6-2.1c-0.5-0.3-1-0.6-1.5-1c-0.6-0.4-1.1-0.6-1.6-0.8h-0.6c-0.5,0.2-1,0.5-1.6,0.8c-0.6,0.3-1.1,0.6-1.5,1
			c-0.8,0.7-1.4,1.5-1.8,2.2c-0.4,0.7-0.7,1.5-0.7,2.4c0,0.8,0.3,1.6,0.8,2.5c0.5,0.9,1.1,1.7,1.8,2.3c0.7,0.6,1.5,1,2.4,1.4
			c0.8,0.3,1.8,0.5,2.8,0.5L1051.1,910.7L1051.1,910.7z M1057.7,910.7h1.4c1,0,2-0.2,2.9-0.5c0.9-0.3,1.8-0.8,2.5-1.3
			c0.6-0.7,1.2-1.4,1.6-2.3c0.5-0.8,0.7-1.6,0.7-2.4c0-0.9-0.2-1.7-0.6-2.4c-0.4-0.7-0.9-1.4-1.6-2.1c-0.8-0.6-1.7-1.1-2.7-1.5
			c-0.9-0.3-1.9-0.5-3-0.5h-3.8c0.7,1.1,1.3,2.1,1.8,3.2c0.4,1.1,0.7,2.1,0.7,3.2L1057.7,910.7L1057.7,910.7z"/>
		<path d="M1094.7,915.8h-13.2v-32.1c1.1,0.1,2,0.3,2.7,0.5c0.7,0.3,1.3,0.6,1.7,1c0.6,0.5,1.1,1,1.4,1.7c0.3,0.7,0.5,1.4,0.5,2.1
			v21.8h7V915.8L1094.7,915.8z"/>
		<path d="M1091.4,915.8v-5.1h7.5v-6.7c0-1.7,0.4-3.3,1.1-4.6s1.8-2.7,3.1-3.8c1.3-1,2.7-1.9,4.3-2.4c1.6-0.6,3.5-0.9,5.5-0.9
			s3.9,0.3,5.5,0.9c1.6,0.6,3.1,1.5,4.5,2.5c2.7,2.4,4,5.1,4,8.3c0,1.6-0.3,3.2-1,4.6c-0.7,1.5-1.7,2.8-3,3.9
			c-1.4,1.1-2.9,1.9-4.5,2.4c-1.6,0.6-3.5,0.8-5.6,0.8L1091.4,915.8L1091.4,915.8z M1105.4,910.7h7.5c1,0,2-0.2,2.9-0.5
			s1.8-0.8,2.6-1.4c0.6-0.7,1.1-1.5,1.6-2.3c0.4-0.8,0.6-1.6,0.6-2.4c0-0.9-0.2-1.7-0.6-2.5c-0.4-0.8-0.9-1.5-1.6-2.1v0
			c-0.7-0.6-1.6-1.1-2.6-1.5c-1-0.4-2-0.5-2.9-0.5c-0.9,0-1.8,0.2-2.8,0.6c-0.9,0.4-1.7,0.8-2.5,1.4c-0.6,0.7-1.1,1.4-1.6,2.2
			c-0.4,0.8-0.7,1.6-0.7,2.4V910.7z"/>
	</g>
	<g>
		<path d="M912.6,961.1h-3.8v-23.8h5.9l6.8,14.9l6.8-14.9h5.9v23.8h-3.8v-18.6l-7.9,16.5h-2.1l-7.8-16.5V961.1z"/>
		<path d="M946.3,955.7l-2.3,5.4h-4.1l9.9-23.8h4.1l9.9,23.8h-4.1l-2.3-5.4H946.3z M956,952l-4.1-9.8l-4.1,9.8H956z"/>
		<path d="M969.6,961.1v-23.8h3.8v10.3h11.2v-10.3h3.8v23.8h-3.8v-9.7h-11.2v9.7H969.6z"/>
		<path d="M1013,937.3v3.8h-12v6.3h10.8v3.6H1001v6.4h12.4v3.8h-16.2v-23.8L1013,937.3L1013,937.3z"/>
		<path d="M1038.8,945c0,3.9-1.6,6.4-4.9,7.4l5.9,8.6h-4.8l-5.4-8h-5v8h-3.8v-23.8h8.4c3.4,0,5.9,0.6,7.4,1.8
			C1038.1,940.3,1038.8,942.3,1038.8,945z M1033.8,948.4c0.8-0.7,1.2-1.8,1.2-3.4c0-1.6-0.4-2.6-1.2-3.2c-0.8-0.6-2.2-0.9-4.3-0.9
			h-4.8v8.5h4.7C1031.5,949.4,1033,949.1,1033.8,948.4z"/>
		<path d="M1065.8,957.8c-2.3,2.4-5.1,3.5-8.4,3.5c-3.4,0-6.2-1.2-8.4-3.5c-2.3-2.4-3.4-5.3-3.4-8.8c0-3.5,1.1-6.4,3.4-8.8
			c2.3-2.4,5.1-3.5,8.4-3.5c3.4,0,6.2,1.2,8.4,3.5c2.3,2.4,3.4,5.3,3.4,8.8C1069.2,952.5,1068,955.4,1065.8,957.8z M1063,942.9
			c-1.5-1.7-3.4-2.5-5.7-2.5c-2.2,0-4.1,0.8-5.7,2.5c-1.5,1.7-2.3,3.7-2.3,6.1s0.8,4.4,2.3,6.1c1.5,1.7,3.4,2.5,5.7,2.5
			c2.2,0,4.1-0.8,5.7-2.5c1.5-1.7,2.3-3.7,2.3-6.1S1064.5,944.6,1063,942.9z"/>
		<path d="M1095.4,957.8c-2.3,2.4-5.1,3.5-8.4,3.5c-3.4,0-6.2-1.2-8.4-3.5c-2.3-2.4-3.4-5.3-3.4-8.8c0-3.5,1.1-6.4,3.4-8.8
			c2.3-2.4,5.1-3.5,8.4-3.5c3.4,0,6.2,1.2,8.4,3.5c2.3,2.4,3.4,5.3,3.4,8.8C1098.8,952.5,1097.7,955.4,1095.4,957.8z M1092.6,942.9
			c-1.5-1.7-3.4-2.5-5.7-2.5c-2.2,0-4.1,0.8-5.7,2.5c-1.5,1.7-2.3,3.7-2.3,6.1s0.8,4.4,2.3,6.1c1.5,1.7,3.4,2.5,5.7,2.5
			s4.1-0.8,5.7-2.5c1.5-1.7,2.3-3.7,2.3-6.1S1094.2,944.6,1092.6,942.9z"/>
		<path d="M1123.1,937.3h3.8v23.8h-4.1l-12.8-17.4v17.4h-3.8v-23.8h3.8l13.1,17.8V937.3z"/>
	</g>
</g>
<g class="st5">
	<g id="XMLID_27_">
		<path id="XMLID_28_" d="M875.8,671.8c-7.2-11.4-9.8-24.3-10-37.7c-0.1-4.8,2.3-7.3,6.6-7.5c4.8-0.2,7.3,1.8,7.8,6.8
			c0.6,6.1,0.8,12.3,2.6,18.3c2,6.3,4.7,12.2,9,17.1c9.2,10.2,22.7,9.5,30.9-1.6c7-9.4,9.9-20.2,10.4-31.8
			c0.3-6.6,0.4-13.1,0.7-19.7c0.1-1.1-0.6-2.8,1.4-3.2c0.6-0.1,0.2-0.8,0.1-1.2c-0.6-18.8-0.5-37.5-0.6-56.3
			c-0.1-29.7,0-59.4,0-89.1c0-2.7-0.2-5.4-0.4-8.1c-0.1-1.9-1-3-2.8-3.4c-5.4-1-10.4-3.2-15.4-5.5c-15-7-29.5-5-43.5,2.9
			c-4,2.2-7.9,4.6-11.7,7.2c-5.1,3.5-9.9,3.2-14.8-0.5c-6.6-5-13.7-9.1-21.6-11.3c-12.8-3.5-25-1.5-36.9,3.8
			c-4.3,1.9-8.6,4.1-12.3,7.1c-4.6,3.7-7,3.7-11.7,0.2c-7.2-5.5-15-9.7-23.8-11.9c-6.4-1.6-12.9-2-19.5-1.5
			c-1.6,0.1-2.9-0.1-4.1-1.2c0-0.8,0-1.5,0-2.3c0.9-2,2.7-2.8,4.4-3.9c28.7-18.5,57.4-37.2,86.2-55.6c25.3-16.2,50.7-32.4,76.1-48.6
			c13.1-8.3,26.2-16.7,39.2-25c3.1-2,6.3-3.5,9.9-4c1.3,0,2.6,0,3.9,0c6.8,2.5,13,6.3,19.1,10.2c33.6,21.6,67.9,42.1,101.7,63.3
			c11.6,7.2,23.2,14.4,34.7,21.6c-24.9-96.6-109-167.7-208.9-167.7c-119.6,0-216.5,101.7-216.5,227.2S763.2,686,882.8,686
			c2.1,0,4.1,0,6.2-0.1C883.8,682.4,879.5,677.5,875.8,671.8z"/>
	</g>
	<g id="XMLID_22_">
		<rect id="XMLID_26_" x="849.2" y="484.3" class="st3" width="29.5" height="31"/>
		<rect id="XMLID_25_" x="814.8" y="484.3" class="st3" width="29.5" height="31"/>
		<rect id="XMLID_24_" x="849.2" y="520.4" class="st3" width="29.5" height="31"/>
		<rect id="XMLID_23_" x="814.8" y="520.4" class="st3" width="29.5" height="31"/>
	</g>
	<g>
		<path d="M965.1,512.7c0,1.3,0.4,2.6,1.1,4c0.8,1.3,1.8,2.6,3.1,3.8c1.3,1.1,2.6,1.9,4.1,2.5s3.1,0.8,4.8,0.8
			c1.7,0,3.3-0.3,4.7-0.8c1.4-0.6,2.8-1.4,4.1-2.4l-0.1,0.1c1.3-1.2,2.3-2.4,3-3.8c0.7-1.3,1.1-2.7,1.1-4.1v-25.1
			c0-2.5,1.1-4.5,3.2-6.2h-0.1c0.7-0.6,1.6-1.2,2.8-1.7c1.1-0.5,2.8-0.8,5.1-0.9v33.1l-1,5.8c-0.6,2-1.4,3.7-2.4,5.2
			c-1,1.5-2.2,2.8-3.4,3.9c-4.7,4-10.3,6-16.9,6c-3.3,0-6.4-0.5-9.4-1.5c-2.9-1-5.6-2.5-7.9-4.5c-4.4-3.7-6.6-8.4-6.6-14.1v-20.3
			c1.9,0.1,3.4,0.4,4.6,0.8c1.2,0.4,2.2,1,3,1.7v-0.1c2,1.7,3,3.8,3,6.5L965.1,512.7L965.1,512.7z M972,470.4c0-1.7,0.6-3.1,1.9-4.2
			c1.2-1.1,2.9-1.7,4.9-1.7c2,0,3.6,0.5,4.8,1.7c1.2,1.1,1.8,2.5,1.8,4.2c0,1.7-0.6,3-1.8,4.1c-1.2,1.1-2.8,1.6-4.8,1.6
			c-2,0-3.7-0.5-4.9-1.6C972.6,473.4,972,472,972,470.4z"/>
		<path d="M1047.9,518.9h-13.1c-3.1,0-6.2-0.5-9-1.4c-2.9-0.9-5.6-2.3-8.2-4.2c-2.1-1.8-3.7-4-4.9-6.5s-1.7-5.2-1.7-8
			s0.6-5.4,1.8-7.8c1.2-2.4,2.9-4.6,5-6.6c2.5-1.8,5.2-3.2,8-4.2c2.8-1,5.8-1.5,8.9-1.5s6.1,0.5,8.9,1.5c2.8,1,5.5,2.4,8,4.2
			c2.1,2,3.8,4.2,5,6.6c1.2,2.4,1.9,5,1.9,7.8V533c-1.7-0.1-3.2-0.4-4.6-1c-1.3-0.6-2.4-1.2-3.3-2c-0.8-0.8-1.5-1.7-2-2.7
			c-0.5-1-0.8-2.1-0.8-3.4L1047.9,518.9L1047.9,518.9z M1047.9,510.2v-11.4c0-1.5-0.4-2.9-1.2-4.2c-0.8-1.3-1.8-2.5-3.1-3.7
			c-2.6-2.2-5.6-3.3-8.9-3.3c-3.3,0-6.2,1.1-8.8,3.3c-1.3,1.1-2.3,2.3-3.1,3.7c-0.8,1.3-1.2,2.7-1.2,4.2c0,1.5,0.4,3,1.2,4.2
			c0.8,1.3,1.8,2.5,3.1,3.7v-0.1c1.4,1.2,2.8,2.1,4.2,2.7s2.9,0.9,4.6,0.9L1047.9,510.2L1047.9,510.2z"/>
		<path d="M1070.3,487.5c0-2.7,0.6-4.5,1.7-5.4c1.2-0.9,2.4-1.7,3.8-2.3c1.4-0.6,3.1-1.1,5.1-1.3v31.7h6.4v8.7h-6.4v4.9
			c0,1.2-0.2,2.4-0.8,3.5c-0.5,1.1-1.2,2-2.1,2.7c-0.9,0.8-2,1.5-3.3,1.9c-1.2,0.5-2.7,0.8-4.5,0.9L1070.3,487.5L1070.3,487.5z"/>
		<path d="M1112.5,510.2v8.7H1084v-8.7H1112.5z"/>
		<path d="M1137.4,510.2v8.7H1109v-8.7H1137.4z"/>
		<path d="M1162.4,510.2v8.7h-28.4v-8.7H1162.4z"/>
		<path d="M1178.7,510.2c-1.3-1.8-2.3-3.7-3.1-5.6c-0.7-2-1.1-3.9-1.1-5.8c0-1.9,0.3-3.7,0.8-5.3c0.5-1.6,1.6-3.4,3.1-5.4
			c-1.4,0-2.7-0.3-3.8-0.6c-1.1-0.4-2.1-0.9-3-1.7c-0.7-0.6-1.3-1.5-1.7-2.6c-0.4-1.1-0.7-2.5-0.9-4.3h49.2c3.4,0,6.5,0.5,9.2,1.5
			c2.7,1,5.2,2.4,7.5,4.2c2.3,2,4,4.2,5.1,6.6c1.1,2.4,1.6,5,1.6,7.9c0,2.8-0.5,5.5-1.5,7.9c-1,2.5-2.7,4.7-5,6.7
			c-2.3,1.9-4.8,3.2-7.5,4c-2.7,0.8-5.8,1.2-9.3,1.2h-61.7v-8.7L1178.7,510.2z M1204.7,510.2v-11.4c0-1.5-0.3-2.8-0.9-4
			c-0.6-1.2-1.6-2.5-2.8-3.6c-0.8-0.5-1.6-1.1-2.6-1.7s-1.9-1.1-2.8-1.3h-1c-0.8,0.3-1.7,0.8-2.7,1.3c-1,0.6-1.8,1.1-2.6,1.6
			c-1.3,1.2-2.4,2.5-3.1,3.7s-1.1,2.6-1.1,4c0,1.3,0.5,2.7,1.4,4.2c0.9,1.5,1.9,2.8,3,4c1.3,1,2.6,1.8,4.1,2.4
			c1.4,0.6,3,0.9,4.8,0.9L1204.7,510.2L1204.7,510.2z M1215.9,510.2h2.3c1.7,0,3.4-0.3,5-0.9c1.6-0.6,3-1.3,4.3-2.3
			c1.1-1.2,2-2.5,2.8-3.8c0.8-1.4,1.2-2.8,1.2-4.1c0-1.5-0.3-2.8-1-4.1c-0.7-1.3-1.6-2.4-2.7-3.5c-1.4-1.1-2.9-1.9-4.5-2.5
			c-1.6-0.6-3.2-0.9-5-0.9h-6.5c1.3,1.8,2.3,3.6,3,5.4s1.1,3.6,1.1,5.4L1215.9,510.2L1215.9,510.2z"/>
		<path d="M1278.8,518.9h-22.5v-54.6c1.8,0.1,3.3,0.4,4.6,0.9c1.2,0.5,2.2,1,2.9,1.7c1.1,0.8,1.8,1.8,2.4,2.9s0.8,2.3,0.8,3.5v37
			h11.8L1278.8,518.9L1278.8,518.9z"/>
		<path d="M1273.3,518.9v-8.7h12.7v-11.3c0-2.9,0.6-5.5,1.8-7.9c1.2-2.3,3-4.5,5.3-6.5c2.2-1.8,4.6-3.2,7.4-4.2
			c2.8-1,5.9-1.5,9.4-1.5s6.6,0.5,9.3,1.6c2.7,1.1,5.3,2.5,7.7,4.3c4.5,4,6.8,8.7,6.8,14.2c0,2.8-0.6,5.4-1.7,7.9
			c-1.1,2.5-2.8,4.7-5.1,6.6c-2.3,1.8-4.9,3.2-7.6,4.1c-2.8,0.9-5.9,1.4-9.4,1.4L1273.3,518.9L1273.3,518.9z M1297.1,510.2h12.7
			c1.8,0,3.4-0.3,5-0.9c1.6-0.6,3-1.4,4.3-2.4c1.1-1.3,1.9-2.6,2.7-4c0.7-1.4,1.1-2.8,1.1-4.2c0-1.5-0.3-2.9-1-4.2
			c-0.7-1.3-1.6-2.5-2.7-3.6v0.1c-1.3-1.1-2.8-1.9-4.4-2.5c-1.7-0.6-3.3-0.9-4.9-0.9c-1.6,0-3.1,0.3-4.7,1c-1.6,0.6-3,1.4-4.2,2.4
			c-1.1,1.1-1.9,2.4-2.7,3.7c-0.8,1.4-1.1,2.8-1.1,4.2V510.2z"/>
	</g>
	<g>
		<path d="M969.1,595.8h-6.5v-40.5h10.1l11.6,25.4l11.6-25.4h10v40.5h-6.5v-31.6L986,592.3h-3.6l-13.3-28.1V595.8z"/>
		<path d="M1026.3,586.6l-3.8,9.2h-6.9l16.9-40.5h6.9l16.9,40.5h-6.9l-3.8-9.2H1026.3z M1042.9,580.3l-7-16.7l-7,16.7H1042.9z"/>
		<path d="M1066,595.8v-40.5h6.5v17.5h19v-17.5h6.5v40.5h-6.5v-16.6h-19v16.6H1066z"/>
		<path d="M1139.9,555.4v6.4h-20.5v10.7h18.4v6.1h-18.4v10.8h21.1v6.4H1113v-40.5L1139.9,555.4L1139.9,555.4z"/>
		<path d="M1183.9,568.5c0,6.7-2.8,10.9-8.3,12.6l10,14.7h-8.2l-9.2-13.6h-8.5v13.6h-6.5v-40.5h14.3c5.8,0,10,1,12.6,3.1
			C1182.6,560.6,1183.9,563.9,1183.9,568.5z M1175.2,574.2c1.3-1.2,2-3.1,2-5.8c0-2.7-0.7-4.5-2-5.5s-3.8-1.5-7.2-1.5h-8.2V576h8.1
			C1171.4,576,1173.9,575.4,1175.2,574.2z"/>
		<path d="M1229.7,590.3c-3.9,4-8.7,6-14.4,6c-5.7,0-10.5-2-14.4-6c-3.9-4-5.8-9-5.8-14.9c0-6,1.9-11,5.8-14.9c3.9-4,8.7-6,14.4-6
			c5.7,0,10.5,2,14.4,6c3.9,4,5.8,9,5.8,14.9C1235.5,581.3,1233.5,586.3,1229.7,590.3z M1224.9,564.9c-2.6-2.9-5.8-4.3-9.6-4.3
			c-3.8,0-7,1.4-9.6,4.3s-3.9,6.3-3.9,10.4s1.3,7.5,3.9,10.4c2.6,2.9,5.8,4.3,9.6,4.3s7-1.4,9.6-4.3c2.6-2.9,3.9-6.3,3.9-10.4
			S1227.5,567.8,1224.9,564.9z"/>
		<path d="M1280.1,590.3c-3.9,4-8.7,6-14.4,6c-5.7,0-10.5-2-14.4-6c-3.9-4-5.8-9-5.8-14.9c0-6,1.9-11,5.8-14.9c3.9-4,8.7-6,14.4-6
			c5.7,0,10.5,2,14.4,6c3.9,4,5.8,9,5.8,14.9S1284,586.3,1280.1,590.3z M1275.4,564.9c-2.6-2.9-5.8-4.3-9.6-4.3
			c-3.8,0-7,1.4-9.6,4.3s-3.9,6.3-3.9,10.4s1.3,7.5,3.9,10.4c2.6,2.9,5.8,4.3,9.6,4.3s7-1.4,9.6-4.3c2.6-2.9,3.9-6.3,3.9-10.4
			C1279.3,571.2,1278,567.8,1275.4,564.9z"/>
		<path d="M1327.2,555.4h6.5v40.5h-7l-21.7-29.5v29.5h-6.5v-40.5h6.5l22.3,30.2V555.4z"/>
	</g>
</g>
</svg>
