<?xml version="1.0" encoding="utf-8"?>
<!-- Generator: Adobe Illustrator 25.0.1, SVG Export Plug-In . SVG Version: 6.00 Build 0)  -->
<svg version="1.1" id="Layer_1" xmlns="http://www.w3.org/2000/svg" xmlns:xlink="http://www.w3.org/1999/xlink" x="0px" y="0px"
	 viewBox="0 0 2000 1128" style="enable-background:new 0 0 2000 1128;" xml:space="preserve">
<style type="text/css">
	.st0{fill-opacity:3.000000e-02;}
	.st1{fill-opacity:2.000000e-02;}
	.st2{opacity:0.17;}
	.st3{fill:#FFFFFF;}
	.st4{opacity:9.000000e-02;}
</style>
<polygon class="st0" points="0,1077.8 392.6,778.4 1505,1127.7 0,1127.7 "/>
<polygon class="st1" points="392.2,778.4 283.3,0 0,0 0,666.5 "/>
<polygon class="st0" points="1000,0 2000,1010 2000,439.9 1749.8,0 "/>
<g class="st2">
	<g id="XMLID_15_">
		<path id="XMLID_16_" d="M247.3,1100.2c-2.1-3.3-2.9-7.1-2.9-11.1c0-1.4,0.7-2.2,1.9-2.2c1.4-0.1,2.1,0.5,2.3,2
			c0.2,1.8,0.2,3.6,0.8,5.4c0.6,1.9,1.4,3.6,2.6,5c2.7,3,6.7,2.8,9.1-0.5c2-2.8,2.9-5.9,3.1-9.3c0.1-1.9,0.1-3.9,0.2-5.8
			c0-0.3-0.2-0.8,0.4-0.9c0.2,0,0-0.2,0-0.4c-0.2-5.5-0.1-11-0.2-16.5c0-8.7,0-17.5,0-26.2c0-0.8-0.1-1.6-0.1-2.4
			c0-0.6-0.3-0.9-0.8-1c-1.6-0.3-3.1-0.9-4.5-1.6c-4.4-2-8.7-1.5-12.8,0.8c-1.2,0.7-2.3,1.4-3.4,2.1c-1.5,1-2.9,0.9-4.4-0.1
			c-1.9-1.5-4-2.7-6.4-3.3c-3.8-1-7.4-0.4-10.9,1.1c-1.3,0.6-2.5,1.2-3.6,2.1c-1.3,1.1-2.1,1.1-3.4,0.1c-2.1-1.6-4.4-2.8-7-3.5
			c-1.9-0.5-3.8-0.6-5.7-0.4c-0.4,0-0.9,0-1.2-0.3c0-0.2,0-0.5,0-0.7c0.3-0.6,0.8-0.8,1.3-1.1c8.4-5.4,16.9-10.9,25.3-16.3
			c7.4-4.8,14.9-9.5,22.4-14.3c3.9-2.4,7.7-4.9,11.5-7.3c0.9-0.6,1.9-1,2.9-1.2c0.4,0,0.8,0,1.1,0c2,0.7,3.8,1.9,5.6,3
			c9.9,6.4,20,12.4,29.9,18.6c3.4,2.1,6.8,4.2,10.2,6.4c-7.3-28.4-32-49.3-61.4-49.3c-35.1,0-63.6,29.9-63.6,66.8
			s28.5,66.8,63.6,66.8c0.6,0,1.2,0,1.8,0C249.6,1103.3,248.4,1101.9,247.3,1100.2z"/>
	</g>
	<g id="XMLID_8_">
		<rect id="XMLID_14_" x="239.5" y="1045.1" class="st3" width="8.7" height="9.1"/>
		<rect id="XMLID_13_" x="229.3" y="1045.1" class="st3" width="8.7" height="9.1"/>
		<rect id="XMLID_12_" x="239.5" y="1055.7" class="st3" width="8.7" height="9.1"/>
		<rect id="XMLID_11_" x="229.3" y="1055.7" class="st3" width="8.7" height="9.1"/>
	</g>
	<g>
		<path d="M273.5,1053.4c0,0.4,0.1,0.8,0.3,1.2s0.5,0.8,0.9,1.1c0.4,0.3,0.8,0.6,1.2,0.7c0.4,0.2,0.9,0.2,1.4,0.2
			c0.5,0,1-0.1,1.4-0.2s0.8-0.4,1.2-0.7l0,0c0.4-0.3,0.7-0.7,0.9-1.1c0.2-0.4,0.3-0.8,0.3-1.2v-7.4c0-0.7,0.3-1.3,0.9-1.8h0
			c0.2-0.2,0.5-0.3,0.8-0.5c0.3-0.2,0.8-0.2,1.5-0.3v9.7l-0.3,1.7c-0.2,0.6-0.4,1.1-0.7,1.5s-0.6,0.8-1,1.1c-1.4,1.2-3,1.8-5,1.8
			c-1,0-1.9-0.2-2.8-0.4c-0.9-0.3-1.6-0.7-2.3-1.3c-1.3-1.1-1.9-2.5-1.9-4.1v-6c0.5,0,1,0.1,1.4,0.2c0.4,0.1,0.6,0.3,0.9,0.5v0
			c0.6,0.5,0.9,1.1,0.9,1.9L273.5,1053.4L273.5,1053.4z M275.5,1041c0-0.5,0.2-0.9,0.5-1.2s0.9-0.5,1.5-0.5c0.6,0,1.1,0.2,1.4,0.5
			c0.4,0.3,0.5,0.7,0.5,1.2c0,0.5-0.2,0.9-0.5,1.2c-0.4,0.3-0.8,0.5-1.4,0.5c-0.6,0-1.1-0.2-1.5-0.5
			C275.7,1041.9,275.5,1041.5,275.5,1041z"/>
		<path d="M297.9,1055.2H294c-0.9,0-1.8-0.1-2.7-0.4c-0.8-0.3-1.6-0.7-2.4-1.2c-0.6-0.5-1.1-1.2-1.4-1.9s-0.5-1.5-0.5-2.4
			s0.2-1.6,0.5-2.3c0.4-0.7,0.8-1.3,1.5-1.9c0.8-0.5,1.5-0.9,2.4-1.2c0.8-0.3,1.7-0.4,2.6-0.4c0.9,0,1.8,0.2,2.6,0.4
			c0.8,0.3,1.6,0.7,2.4,1.2c0.6,0.6,1.1,1.2,1.5,1.9c0.4,0.7,0.5,1.5,0.5,2.3v10.1c-0.5,0-1-0.1-1.4-0.3s-0.7-0.4-1-0.6
			c-0.2-0.2-0.4-0.5-0.6-0.8c-0.1-0.3-0.2-0.6-0.2-1L297.9,1055.2L297.9,1055.2z M297.9,1052.7v-3.4c0-0.4-0.1-0.9-0.4-1.2
			c-0.2-0.4-0.5-0.8-0.9-1.1c-0.8-0.7-1.6-1-2.6-1c-1,0-1.8,0.3-2.6,1c-0.4,0.3-0.7,0.7-0.9,1.1c-0.2,0.4-0.3,0.8-0.3,1.2
			c0,0.5,0.1,0.9,0.3,1.2s0.5,0.7,0.9,1.1v0c0.4,0.3,0.8,0.6,1.2,0.8c0.4,0.2,0.9,0.3,1.3,0.3H297.9z"/>
		<path d="M304.5,1046c0-0.8,0.2-1.3,0.5-1.6c0.3-0.3,0.7-0.5,1.1-0.7c0.4-0.2,0.9-0.3,1.5-0.4v9.3h1.9v2.6h-1.9v1.4
			c0,0.4-0.1,0.7-0.2,1c-0.1,0.3-0.4,0.6-0.6,0.8c-0.3,0.2-0.6,0.4-1,0.6c-0.4,0.2-0.8,0.2-1.3,0.3L304.5,1046L304.5,1046z"/>
		<path d="M316.9,1052.7v2.6h-8.4v-2.6H316.9z"/>
		<path d="M324.2,1052.7v2.6h-8.4v-2.6H324.2z"/>
		<path d="M331.5,1052.7v2.6h-8.4v-2.6H331.5z"/>
		<path d="M336.3,1052.7c-0.4-0.5-0.7-1.1-0.9-1.7c-0.2-0.6-0.3-1.2-0.3-1.7c0-0.6,0.1-1.1,0.2-1.6c0.1-0.5,0.5-1,0.9-1.6
			c-0.4,0-0.8-0.1-1.1-0.2s-0.6-0.3-0.9-0.5c-0.2-0.2-0.4-0.4-0.5-0.8c-0.1-0.3-0.2-0.8-0.3-1.3h14.5c1,0,1.9,0.2,2.7,0.5
			c0.8,0.3,1.5,0.7,2.2,1.2c0.7,0.6,1.2,1.2,1.5,1.9c0.3,0.7,0.5,1.5,0.5,2.3c0,0.8-0.1,1.6-0.5,2.3c-0.3,0.7-0.8,1.4-1.5,2
			c-0.7,0.6-1.4,0.9-2.2,1.2c-0.8,0.2-1.7,0.3-2.7,0.3h-18.1v-2.6L336.3,1052.7L336.3,1052.7z M344,1052.7v-3.4
			c0-0.4-0.1-0.8-0.3-1.2c-0.2-0.4-0.5-0.7-0.8-1.1c-0.2-0.2-0.5-0.3-0.8-0.5c-0.3-0.2-0.6-0.3-0.8-0.4H341
			c-0.2,0.1-0.5,0.2-0.8,0.4c-0.3,0.2-0.5,0.3-0.8,0.5c-0.4,0.4-0.7,0.7-0.9,1.1s-0.3,0.8-0.3,1.2c0,0.4,0.1,0.8,0.4,1.2
			c0.3,0.4,0.6,0.8,0.9,1.2c0.4,0.3,0.8,0.5,1.2,0.7c0.4,0.2,0.9,0.3,1.4,0.3L344,1052.7L344,1052.7z M347.2,1052.7h0.7
			c0.5,0,1-0.1,1.5-0.3s0.9-0.4,1.3-0.7c0.3-0.3,0.6-0.7,0.8-1.1c0.2-0.4,0.4-0.8,0.4-1.2c0-0.4-0.1-0.8-0.3-1.2
			c-0.2-0.4-0.5-0.7-0.8-1c-0.4-0.3-0.9-0.6-1.3-0.7c-0.5-0.2-1-0.3-1.5-0.3H346c0.4,0.5,0.7,1.1,0.9,1.6c0.2,0.5,0.3,1.1,0.3,1.6
			L347.2,1052.7L347.2,1052.7z"/>
		<path d="M365.7,1055.2h-6.6v-16.1c0.5,0,1,0.1,1.3,0.3s0.6,0.3,0.9,0.5c0.3,0.2,0.5,0.5,0.7,0.8s0.2,0.7,0.2,1v10.9h3.5
			L365.7,1055.2L365.7,1055.2z"/>
		<path d="M364.1,1055.2v-2.6h3.7v-3.3c0-0.9,0.2-1.6,0.5-2.3c0.4-0.7,0.9-1.3,1.6-1.9c0.6-0.5,1.4-0.9,2.2-1.2
			c0.8-0.3,1.7-0.4,2.8-0.4s1.9,0.2,2.7,0.5c0.8,0.3,1.6,0.7,2.2,1.2c1.3,1.2,2,2.6,2,4.2c0,0.8-0.2,1.6-0.5,2.3s-0.8,1.4-1.5,1.9
			c-0.7,0.5-1.4,0.9-2.2,1.2c-0.8,0.3-1.7,0.4-2.8,0.4L364.1,1055.2L364.1,1055.2z M371.1,1052.7h3.7c0.5,0,1-0.1,1.5-0.3
			s0.9-0.4,1.3-0.7c0.3-0.4,0.6-0.8,0.8-1.2s0.3-0.8,0.3-1.2c0-0.4-0.1-0.9-0.3-1.2c-0.2-0.4-0.5-0.7-0.8-1.1v0
			c-0.4-0.3-0.8-0.6-1.3-0.8c-0.5-0.2-1-0.3-1.5-0.3c-0.5,0-0.9,0.1-1.4,0.3c-0.5,0.2-0.9,0.4-1.2,0.7c-0.3,0.3-0.6,0.7-0.8,1.1
			s-0.3,0.8-0.3,1.2L371.1,1052.7L371.1,1052.7z"/>
	</g>
	<g>
		<path d="M274.7,1077.9h-1.9V1066h3l3.4,7.5l3.4-7.5h3v11.9h-1.9v-9.3l-3.9,8.3h-1.1l-3.9-8.3L274.7,1077.9L274.7,1077.9z"/>
		<path d="M291.5,1075.2l-1.1,2.7h-2l5-11.9h2l5,11.9h-2l-1.1-2.7H291.5z M296.4,1073.3l-2-4.9l-2,4.9H296.4z"/>
		<path d="M303.2,1077.9V1066h1.9v5.2h5.6v-5.2h1.9v11.9h-1.9v-4.9h-5.6v4.9H303.2z"/>
		<path d="M324.9,1066v1.9h-6v3.2h5.4v1.8h-5.4v3.2h6.2v1.9H317V1066L324.9,1066L324.9,1066z"/>
		<path d="M337.8,1069.8c0,2-0.8,3.2-2.4,3.7l3,4.3h-2.4l-2.7-4h-2.5v4h-1.9V1066h4.2c1.7,0,3,0.3,3.7,0.9
			C337.5,1067.5,337.8,1068.5,337.8,1069.8z M335.3,1071.5c0.4-0.3,0.6-0.9,0.6-1.7c0-0.8-0.2-1.3-0.6-1.6s-1.1-0.4-2.1-0.4h-2.4
			v4.3h2.4C334.2,1072.1,334.9,1071.9,335.3,1071.5z"/>
		<path d="M351.3,1076.2c-1.1,1.2-2.5,1.8-4.2,1.8c-1.7,0-3.1-0.6-4.2-1.8s-1.7-2.6-1.7-4.4s0.6-3.2,1.7-4.4
			c1.1-1.2,2.5-1.8,4.2-1.8c1.7,0,3.1,0.6,4.2,1.8c1.1,1.2,1.7,2.6,1.7,4.4S352.4,1075.1,351.3,1076.2z M349.9,1068.8
			c-0.8-0.8-1.7-1.3-2.8-1.3s-2.1,0.4-2.8,1.3s-1.1,1.9-1.1,3.1c0,1.2,0.4,2.2,1.1,3.1c0.8,0.8,1.7,1.3,2.8,1.3s2.1-0.4,2.8-1.3
			s1.1-1.9,1.1-3.1S350.7,1069.6,349.9,1068.8z"/>
		<path d="M366.1,1076.2c-1.1,1.2-2.5,1.8-4.2,1.8c-1.7,0-3.1-0.6-4.2-1.8s-1.7-2.6-1.7-4.4s0.6-3.2,1.7-4.4
			c1.1-1.2,2.5-1.8,4.2-1.8c1.7,0,3.1,0.6,4.2,1.8c1.1,1.2,1.7,2.6,1.7,4.4C367.8,1073.6,367.3,1075.1,366.1,1076.2z M364.7,1068.8
			c-0.8-0.8-1.7-1.3-2.8-1.3s-2.1,0.4-2.8,1.3s-1.1,1.9-1.1,3.1c0,1.2,0.4,2.2,1.1,3.1c0.8,0.8,1.7,1.3,2.8,1.3s2.1-0.4,2.8-1.3
			s1.1-1.9,1.1-3.1S365.5,1069.6,364.7,1068.8z"/>
		<path d="M380,1066h1.9v11.9h-2.1l-6.4-8.7v8.7h-1.9V1066h1.9l6.5,8.9L380,1066L380,1066z"/>
	</g>
</g>
<g class="st4">
	<g id="XMLID_27_">
		<path id="XMLID_28_" d="M875.8,806.8c-7.2-11.4-9.8-24.3-10-37.7c-0.1-4.8,2.3-7.3,6.6-7.5c4.8-0.2,7.3,1.8,7.8,6.8
			c0.6,6.1,0.8,12.3,2.6,18.3c2,6.3,4.7,12.2,9,17.1c9.2,10.2,22.7,9.5,30.9-1.6c7-9.4,9.9-20.2,10.4-31.8
			c0.3-6.6,0.4-13.1,0.7-19.7c0.1-1.1-0.6-2.8,1.4-3.2c0.6-0.1,0.2-0.8,0.1-1.2c-0.6-18.8-0.5-37.5-0.6-56.3
			c-0.1-29.7,0-59.4,0-89.1c0-2.7-0.2-5.4-0.4-8.1c-0.1-1.9-1-3-2.8-3.4c-5.4-1-10.4-3.2-15.4-5.5c-15-7-29.5-5-43.5,2.9
			c-4,2.2-7.9,4.6-11.7,7.2c-5.1,3.5-9.9,3.2-14.8-0.5c-6.6-5-13.7-9.1-21.6-11.3c-12.8-3.5-25-1.5-36.9,3.8
			c-4.3,1.9-8.6,4.1-12.3,7.1c-4.6,3.7-7,3.7-11.7,0.2c-7.2-5.5-15-9.7-23.8-11.9c-6.4-1.6-12.9-2-19.5-1.5
			c-1.6,0.1-2.9-0.1-4.1-1.2c0-0.8,0-1.5,0-2.3c0.9-2,2.7-2.8,4.4-3.9c28.7-18.5,57.4-37.2,86.2-55.6c25.3-16.2,50.7-32.4,76.1-48.6
			c13.1-8.3,26.2-16.7,39.2-25c3.1-2,6.3-3.5,9.9-4c1.3,0,2.6,0,3.9,0c6.8,2.5,13,6.3,19.1,10.2c33.6,21.6,67.9,42.1,101.7,63.3
			c11.6,7.2,23.2,14.4,34.7,21.6c-24.9-96.6-109-167.7-208.9-167.7c-119.6,0-216.5,101.7-216.5,227.2S763.2,821,882.8,821
			c2.1,0,4.1,0,6.2-0.1C883.8,817.4,879.5,812.5,875.8,806.8z"/>
	</g>
	<g id="XMLID_22_">
		<rect id="XMLID_26_" x="849.2" y="619.3" class="st3" width="29.5" height="31"/>
		<rect id="XMLID_25_" x="814.8" y="619.3" class="st3" width="29.5" height="31"/>
		<rect id="XMLID_24_" x="849.2" y="655.4" class="st3" width="29.5" height="31"/>
		<rect id="XMLID_23_" x="814.8" y="655.4" class="st3" width="29.5" height="31"/>
	</g>
	<g>
		<path d="M965.1,647.7c0,1.3,0.4,2.6,1.1,4c0.8,1.3,1.8,2.6,3.1,3.8c1.3,1.1,2.6,1.9,4.1,2.5s3.1,0.8,4.8,0.8
			c1.7,0,3.3-0.3,4.7-0.8c1.4-0.6,2.8-1.4,4.1-2.4l-0.1,0.1c1.3-1.2,2.3-2.4,3-3.8c0.7-1.3,1.1-2.7,1.1-4.1v-25.1
			c0-2.5,1.1-4.5,3.2-6.2h-0.1c0.7-0.6,1.6-1.2,2.8-1.7c1.1-0.5,2.8-0.8,5.1-0.9v33.1l-1,5.8c-0.6,2-1.4,3.7-2.4,5.2
			c-1,1.5-2.2,2.8-3.4,3.9c-4.7,4-10.3,6-16.9,6c-3.3,0-6.4-0.5-9.4-1.5c-2.9-1-5.6-2.5-7.9-4.5c-4.4-3.7-6.6-8.4-6.6-14.1v-20.3
			c1.9,0.1,3.4,0.4,4.6,0.8c1.2,0.4,2.2,1,3,1.7v-0.1c2,1.7,3,3.8,3,6.5L965.1,647.7L965.1,647.7z M972,605.4c0-1.7,0.6-3.1,1.9-4.2
			c1.2-1.1,2.9-1.7,4.9-1.7c2,0,3.6,0.5,4.8,1.7c1.2,1.1,1.8,2.5,1.8,4.2c0,1.7-0.6,3-1.8,4.1c-1.2,1.1-2.8,1.6-4.8,1.6
			c-2,0-3.7-0.5-4.9-1.6C972.6,608.4,972,607,972,605.4z"/>
		<path d="M1047.9,653.9h-13.1c-3.1,0-6.2-0.5-9-1.4c-2.9-0.9-5.6-2.3-8.2-4.2c-2.1-1.8-3.7-4-4.9-6.5s-1.7-5.2-1.7-8
			s0.6-5.4,1.8-7.8c1.2-2.4,2.9-4.6,5-6.6c2.5-1.8,5.2-3.2,8-4.2c2.8-1,5.8-1.5,8.9-1.5s6.1,0.5,8.9,1.5c2.8,1,5.5,2.4,8,4.2
			c2.1,2,3.8,4.2,5,6.6c1.2,2.4,1.9,5,1.9,7.8V668c-1.7-0.1-3.2-0.4-4.6-1c-1.3-0.6-2.4-1.2-3.3-2c-0.8-0.8-1.5-1.7-2-2.7
			c-0.5-1-0.8-2.1-0.8-3.4L1047.9,653.9L1047.9,653.9z M1047.9,645.2v-11.4c0-1.5-0.4-2.9-1.2-4.2c-0.8-1.3-1.8-2.5-3.1-3.7
			c-2.6-2.2-5.6-3.3-8.9-3.3c-3.3,0-6.2,1.1-8.8,3.3c-1.3,1.1-2.3,2.3-3.1,3.7c-0.8,1.3-1.2,2.7-1.2,4.2c0,1.5,0.4,3,1.2,4.2
			c0.8,1.3,1.8,2.5,3.1,3.7v-0.1c1.4,1.2,2.8,2.1,4.2,2.7s2.9,0.9,4.6,0.9L1047.9,645.2L1047.9,645.2z"/>
		<path d="M1070.3,622.5c0-2.7,0.6-4.5,1.7-5.4c1.2-0.9,2.4-1.7,3.8-2.3c1.4-0.6,3.1-1.1,5.1-1.3v31.7h6.4v8.7h-6.4v4.9
			c0,1.2-0.2,2.4-0.8,3.5c-0.5,1.1-1.2,2-2.1,2.7c-0.9,0.8-2,1.5-3.3,1.9c-1.2,0.5-2.7,0.8-4.5,0.9L1070.3,622.5L1070.3,622.5z"/>
		<path d="M1112.5,645.2v8.7H1084v-8.7H1112.5z"/>
		<path d="M1137.4,645.2v8.7H1109v-8.7H1137.4z"/>
		<path d="M1162.4,645.2v8.7h-28.4v-8.7H1162.4z"/>
		<path d="M1178.7,645.2c-1.3-1.8-2.3-3.7-3.1-5.6c-0.7-2-1.1-3.9-1.1-5.8c0-1.9,0.3-3.7,0.8-5.3c0.5-1.6,1.6-3.4,3.1-5.4
			c-1.4,0-2.7-0.3-3.8-0.6c-1.1-0.4-2.1-0.9-3-1.7c-0.7-0.6-1.3-1.5-1.7-2.6c-0.4-1.1-0.7-2.5-0.9-4.3h49.2c3.4,0,6.5,0.5,9.2,1.5
			c2.7,1,5.2,2.4,7.5,4.2c2.3,2,4,4.2,5.1,6.6c1.1,2.4,1.6,5,1.6,7.9c0,2.8-0.5,5.5-1.5,7.9c-1,2.5-2.7,4.7-5,6.7
			c-2.3,1.9-4.8,3.2-7.5,4c-2.7,0.8-5.8,1.2-9.3,1.2h-61.7v-8.7L1178.7,645.2z M1204.7,645.2v-11.4c0-1.5-0.3-2.8-0.9-4
			c-0.6-1.2-1.6-2.5-2.8-3.6c-0.8-0.5-1.6-1.1-2.6-1.7s-1.9-1.1-2.8-1.3h-1c-0.8,0.3-1.7,0.8-2.7,1.3c-1,0.6-1.8,1.1-2.6,1.6
			c-1.3,1.2-2.4,2.5-3.1,3.7s-1.1,2.6-1.1,4c0,1.3,0.5,2.7,1.4,4.2c0.9,1.5,1.9,2.8,3,4c1.3,1,2.6,1.8,4.1,2.4
			c1.4,0.6,3,0.9,4.8,0.9L1204.7,645.2L1204.7,645.2z M1215.9,645.2h2.3c1.7,0,3.4-0.3,5-0.9c1.6-0.6,3-1.3,4.3-2.3
			c1.1-1.2,2-2.5,2.8-3.8c0.8-1.4,1.2-2.8,1.2-4.1c0-1.5-0.3-2.8-1-4.1c-0.7-1.3-1.6-2.4-2.7-3.5c-1.4-1.1-2.9-1.9-4.5-2.5
			c-1.6-0.6-3.2-0.9-5-0.9h-6.5c1.3,1.8,2.3,3.6,3,5.4s1.1,3.6,1.1,5.4L1215.9,645.2L1215.9,645.2z"/>
		<path d="M1278.8,653.9h-22.5v-54.6c1.8,0.1,3.3,0.4,4.6,0.9c1.2,0.5,2.2,1,2.9,1.7c1.1,0.8,1.8,1.8,2.4,2.9s0.8,2.3,0.8,3.5v37
			h11.8L1278.8,653.9L1278.8,653.9z"/>
		<path d="M1273.3,653.9v-8.7h12.7v-11.3c0-2.9,0.6-5.5,1.8-7.9c1.2-2.3,3-4.5,5.3-6.5c2.2-1.8,4.6-3.2,7.4-4.2
			c2.8-1,5.9-1.5,9.4-1.5s6.6,0.5,9.3,1.6c2.7,1.1,5.3,2.5,7.7,4.3c4.5,4,6.8,8.7,6.8,14.2c0,2.8-0.6,5.4-1.7,7.9
			c-1.1,2.5-2.8,4.7-5.1,6.6c-2.3,1.8-4.9,3.2-7.6,4.1c-2.8,0.9-5.9,1.4-9.4,1.4L1273.3,653.9L1273.3,653.9z M1297.1,645.2h12.7
			c1.8,0,3.4-0.3,5-0.9c1.6-0.6,3-1.4,4.3-2.4c1.1-1.3,1.9-2.6,2.7-4c0.7-1.4,1.1-2.8,1.1-4.2c0-1.5-0.3-2.9-1-4.2
			c-0.7-1.3-1.6-2.5-2.7-3.6v0.1c-1.3-1.1-2.8-1.9-4.4-2.5c-1.7-0.6-3.3-0.9-4.9-0.9c-1.6,0-3.1,0.3-4.7,1c-1.6,0.6-3,1.4-4.2,2.4
			c-1.1,1.1-1.9,2.4-2.7,3.7c-0.8,1.4-1.1,2.8-1.1,4.2V645.2z"/>
	</g>
	<g>
		<path d="M969.1,730.8h-6.5v-40.5h10.1l11.6,25.4l11.6-25.4h10v40.5h-6.5v-31.6L986,727.3h-3.6l-13.3-28.1V730.8z"/>
		<path d="M1026.3,721.6l-3.8,9.2h-6.9l16.9-40.5h6.9l16.9,40.5h-6.9l-3.8-9.2H1026.3z M1042.9,715.3l-7-16.7l-7,16.7H1042.9z"/>
		<path d="M1066,730.8v-40.5h6.5v17.5h19v-17.5h6.5v40.5h-6.5v-16.6h-19v16.6H1066z"/>
		<path d="M1139.9,690.4v6.4h-20.5v10.7h18.4v6.1h-18.4v10.8h21.1v6.4H1113v-40.5L1139.9,690.4L1139.9,690.4z"/>
		<path d="M1183.9,703.5c0,6.7-2.8,10.9-8.3,12.6l10,14.7h-8.2l-9.2-13.6h-8.5v13.6h-6.5v-40.5h14.3c5.8,0,10,1,12.6,3.1
			C1182.6,695.6,1183.9,698.9,1183.9,703.5z M1175.2,709.2c1.3-1.2,2-3.1,2-5.8c0-2.7-0.7-4.5-2-5.5s-3.8-1.5-7.2-1.5h-8.2V711h8.1
			C1171.4,711,1173.9,710.4,1175.2,709.2z"/>
		<path d="M1229.7,725.3c-3.9,4-8.7,6-14.4,6c-5.7,0-10.5-2-14.4-6c-3.9-4-5.8-9-5.8-14.9c0-6,1.9-11,5.8-14.9c3.9-4,8.7-6,14.4-6
			c5.7,0,10.5,2,14.4,6c3.9,4,5.8,9,5.8,14.9C1235.5,716.3,1233.5,721.3,1229.7,725.3z M1224.9,699.9c-2.6-2.9-5.8-4.3-9.6-4.3
			c-3.8,0-7,1.4-9.6,4.3s-3.9,6.3-3.9,10.4s1.3,7.5,3.9,10.4c2.6,2.9,5.8,4.3,9.6,4.3s7-1.4,9.6-4.3c2.6-2.9,3.9-6.3,3.9-10.4
			S1227.5,702.8,1224.9,699.9z"/>
		<path d="M1280.1,725.3c-3.9,4-8.7,6-14.4,6c-5.7,0-10.5-2-14.4-6c-3.9-4-5.8-9-5.8-14.9c0-6,1.9-11,5.8-14.9c3.9-4,8.7-6,14.4-6
			c5.7,0,10.5,2,14.4,6c3.9,4,5.8,9,5.8,14.9S1284,721.3,1280.1,725.3z M1275.4,699.9c-2.6-2.9-5.8-4.3-9.6-4.3
			c-3.8,0-7,1.4-9.6,4.3s-3.9,6.3-3.9,10.4s1.3,7.5,3.9,10.4c2.6,2.9,5.8,4.3,9.6,4.3s7-1.4,9.6-4.3c2.6-2.9,3.9-6.3,3.9-10.4
			C1279.3,706.2,1278,702.8,1275.4,699.9z"/>
		<path d="M1327.2,690.4h6.5v40.5h-7l-21.7-29.5v29.5h-6.5v-40.5h6.5l22.3,30.2V690.4z"/>
	</g>
</g>
</svg>
